<?xml version="1.0" encoding="UTF-8"?>
<svg id="Layer_1" xmlns="http://www.w3.org/2000/svg" version="1.1" viewBox="0 0 78.6 78.6">
  <!-- Generator: Adobe Illustrator 29.0.1, SVG Export Plug-In . SVG Version: 2.1.0 Build 192)  -->
  <defs>
    <style>
      .st0 {
        fill: #4e9b99;
      }
    </style>
  </defs>
  <path class="st0" d="M62.6,21.7c2.2-.6,5.6-2,7.8-2,7,0,8.2,15.6,8.2,16,0,9.4-22.3,5.8-22.3,11.2s12.4,14.6,12.4,19.9-12,11.8-15.2,11.8c-5.2,0-11.8-20.3-15.7-20.3s-13.6,18.3-18.9,18.3-13.4-8.2-13.4-12.4c0-7.4,14.6-16.2,14.6-19.7,0-4.6-20.2-3.4-20.2-12.4s3.4-15.2,8-15.2,16.5,7.2,19.3,7.2,2-2.8,2-5.2-.2-3-.2-3.6V6.8c.2-5.4,3.6-6.8,8.4-6.8s12-.2,12,6.6-1.4,11.4-1.4,17,.8,2,1.8,2,3.8-1,4.6-1.2l8-2.8Z"/>
</svg>