<?xml version="1.0" encoding="utf-8"?>
<!-- Generator: Adobe Illustrator 24.1.0, SVG Export Plug-In . SVG Version: 6.00 Build 0)  -->
<svg version="1.1" id="Layer_1" xmlns="http://www.w3.org/2000/svg" xmlns:xlink="http://www.w3.org/1999/xlink" x="0px" y="0px"
	 viewBox="0 0 117.56 148.85" style="enable-background:new 0 0 117.56 148.85;" xml:space="preserve">
<style type="text/css">
	.st0{fill:#1E1E1E;}
</style>
<g>
	<path class="st0" d="M51.16,148.85C14.04,148.85,0,134.81,0,121.97c0-11.64,11.03-11.84,11.03-14.85c0-2.61-10.83-8.22-10.83-17.05
		c0-14.24,16.25-18.46,16.25-21.26c0-2.41-13.64-11.64-13.64-26.48c0-24.27,30.29-35.51,50.55-35.51c10.23,0,24.07,3.81,31.09,3.81
		C99.7,10.63,107.33,0,110.33,0c4.61,0,6.62,6.02,6.62,9.83c0,11.23-11.23,19.26-11.23,21.47c0,2.01,0.6,4.21,0.6,6.22
		c0,27.08-31.5,36.31-53.56,36.31c-3.41,0-6.82-0.6-10.43-0.6c-3.41,0-5.42,2.21-5.42,5.42c0,6.22,8.83,7.42,13.44,7.42
		c6.22,0,29.49-3.41,37.51-3.41c20.86,0,29.69,11.84,29.69,23.87C117.56,124.58,100.3,148.85,51.16,148.85z M53.16,131.6
		c6.62,0,21.67-1,21.67-10.23c0-4.21-4.01-6.02-7.82-6.02c-3.01,0-10.83,1.2-17.25,1.2c-4.61,0-15.45-1.6-17.65-1.6
		c-1.81,0-2.41,1.81-2.41,3.21C29.69,128.79,45.34,131.6,53.16,131.6z M54.36,21.47c-7.82,0-11.23,7.42-11.23,14.44
		c0,7.62,2.01,24.27,12.24,24.27c9.03,0,12.04-7.82,12.04-15.65C67.4,36.31,65.6,21.47,54.36,21.47z"/>
</g>
</svg>
